<?xml version="1.0" encoding="utf-8"?>
<!-- Generator: Adobe Illustrator 15.0.2, SVG Export Plug-In  -->
<!DOCTYPE svg PUBLIC "-//W3C//DTD SVG 1.1//EN" "http://www.w3.org/Graphics/SVG/1.1/DTD/svg11.dtd" [
	<!ENTITY ns_flows "http://ns.adobe.com/Flows/1.0/">
]>
<svg version="1.1"
	 xmlns="http://www.w3.org/2000/svg" xmlns:xlink="http://www.w3.org/1999/xlink" xmlns:a="http://ns.adobe.com/AdobeSVGViewerExtensions/3.0/"
	 x="0px" y="0px" width="600px" height="216px" viewBox="0 0 600 216" overflow="visible" enable-background="new 0 0 600 216"
	 xml:space="preserve">
<defs>
</defs>
<rect y="159" width="585" height="57"/>
<path d="M0,0v18h8v144h38V18h8V0H0z M36,18.501c-1.5,1.407-3,2.137-4.5,2.664c-1.5,0.499-3,0.731-4.5,0.735
	c-1.5,0.005-3-0.228-4.5-0.726c-1.5-0.525-3-1.257-4.5-2.673v-0.4c1.5-0.078,3-0.125,4.5-0.133l4.5-0.066l4.5,0.067
	c1.5,0.008,3,0.055,4.5,0.132V18.501z"/>
<path d="M68,0v18h8v144h38V18h8V0H68z M104,18.501c-1,1.407-2.875,2.137-4.375,2.664c-1.5,0.499-2.938,0.731-4.438,0.735
	c-1.5,0.005-3.094-0.228-4.594-0.726C89.094,20.649,88,19.917,86,18.501v-0.4c2-0.078,3.125-0.125,4.625-0.133l4.562-0.066
	l4.406,0.067c1.5,0.008,3.406,0.055,4.406,0.132V18.501z"/>
<path d="M136,0v18h8v144h38V18h8V0H136z M172,18.501c-1,1.407-2.75,2.137-4.25,2.664c-1.5,0.499-2.875,0.731-4.375,0.735
	c-1.5,0.005-3.188-0.228-4.688-0.726c-1.5-0.525-2.688-1.257-4.688-2.673v-0.4c2-0.078,3.25-0.125,4.75-0.133l4.625-0.066
	l4.312,0.067c1.5,0.008,3.312,0.055,4.312,0.132V18.501z"/>
<path d="M205,0v18h8v144h38V18h8V0H205z M241,18.501c-2,1.407-3.125,2.137-4.625,2.664c-1.5,0.499-3.062,0.731-4.562,0.735
	c-1.5,0.005-2.906-0.228-4.406-0.726c-1.5-0.525-3.406-1.257-4.406-2.673v-0.4c1-0.078,2.875-0.125,4.375-0.133l4.438-0.066
	l4.594,0.067c1.5,0.008,2.594,0.055,4.594,0.132V18.501z"/>
<path d="M273,0v18h8v144h38V18h8V0H273z M309,18.501c-1.5,1.407-3,2.137-4.5,2.664c-1.5,0.499-3,0.731-4.5,0.735
	c-1.5,0.005-3-0.228-4.5-0.726c-1.5-0.525-3-1.257-4.5-2.673v-0.4c1.5-0.078,3-0.125,4.5-0.133l4.5-0.066l4.5,0.067
	c1.5,0.008,3,0.055,4.5,0.132V18.501z"/>
<path d="M341,0v18h8v144h38V18h8V0H341z M377,18.501c-1,1.407-2.875,2.137-4.375,2.664c-1.5,0.499-2.938,0.731-4.438,0.735
	c-1.5,0.005-3.094-0.228-4.594-0.726c-1.5-0.525-2.594-1.257-4.594-2.673v-0.4c2-0.078,3.125-0.125,4.625-0.133l4.562-0.066
	l4.406,0.067c1.5,0.008,3.406,0.055,4.406,0.132V18.501z"/>
<path d="M409,0v18h8v144h38V18h8V0H409z M445,18.501c-1,1.407-2.75,2.137-4.25,2.664c-1.5,0.499-2.875,0.731-4.375,0.735
	c-1.5,0.005-3.188-0.228-4.688-0.726c-1.5-0.525-2.688-1.257-4.688-2.673v-0.4c2-0.078,3.25-0.125,4.75-0.133l4.625-0.066
	l4.312,0.067c1.5,0.008,3.312,0.055,4.312,0.132V18.501z"/>
<path d="M478,0v18h8v144h38V18h8V0H478z M514,18.501c-2,1.407-3.125,2.137-4.625,2.664c-1.5,0.499-3.062,0.731-4.562,0.735
	c-1.5,0.005-2.906-0.228-4.406-0.726c-1.5-0.525-3.406-1.257-4.406-2.673v-0.4c1-0.078,2.875-0.125,4.375-0.133l4.438-0.066
	l4.594,0.067c1.5,0.008,2.594,0.055,4.594,0.132V18.501z"/>
<path d="M546,0v18h8v144h38V18h8V0H546z M582,18.501c-1.5,1.407-3,2.137-4.5,2.664c-1.5,0.499-3,0.731-4.5,0.735
	c-1.5,0.005-3-0.228-4.5-0.726c-1.5-0.525-3-1.257-4.5-2.673v-0.4c1.5-0.078,3-0.125,4.5-0.133l4.5-0.066l4.5,0.067
	c1.5,0.008,3,0.055,4.5,0.132V18.501z"/>
</svg>
